<svg xmlns="http://www.w3.org/2000/svg" viewBox="0 0 168.83 22.57" xmlns:v="https://vecta.io/nano"><path d="M2.32 11.87V5.1a4.66 4.66 0 0 0-.18-1.67 1.46 1.46 0 0 0-1-.57C.39 2.63 0 2.25 0 1.7A1 1 0 0 1 .49.81 2.73 2.73 0 0 1 1.9.5h1.54.77 2.5C7 .5 7.83.42 9.33.28a13.62 13.62 0 0 1 1.36-.07 7.93 7.93 0 0 1 3.76.86 5 5 0 0 1 2.87 4.73 5.08 5.08 0 0 1-2 4.21 7.17 7.17 0 0 1-4.58 1.48c-.45 0-1 0-1.67-.09h-.66c-.25 0-.37.14-.37.43v.08L8.12 14a1.94 1.94 0 0 0 .22.92 2.36 2.36 0 0 0 .82.62c.56.3.84.63.84 1 0 .54-.41.95-1.24 1.25a11 11 0 0 1-3.5.43Q.5 18.18.5 16.55A.77.77 0 0 1 .71 16a4 4 0 0 1 1-.59 1 1 0 0 0 .54-.69l.07-2.85zm5.8-8.41v4.38c0 .33.07.53.22.6a2.16 2.16 0 0 0 .94.18 2.24 2.24 0 0 0 1.43-.47 2.83 2.83 0 0 0 .83-2.29 2.82 2.82 0 0 0-1-2.42A2.34 2.34 0 0 0 9.07 3c-.63 0-.95.13-.95.46zM25 5.1a6.25 6.25 0 0 1 3.8 1.13A3.31 3.31 0 0 1 30 7.61a5.61 5.61 0 0 1 .33 2.14v1.92a7.29 7.29 0 0 0 .29 2.59.79.79 0 0 0 .27.36 1.63 1.63 0 0 0 .54.14c.27 0 .41.22.41.54a2.22 2.22 0 0 1-.5 1.29A4.11 4.11 0 0 1 30 17.71a4 4 0 0 1-2 .56 2.66 2.66 0 0 1-2.13-.92c-.18-.23-.35-.34-.5-.34a1.32 1.32 0 0 0-.69.32 4.78 4.78 0 0 1-2.92.94 4.73 4.73 0 0 1-2.76-.72 3.42 3.42 0 0 1-1.08-1.24 3.48 3.48 0 0 1-.4-1.6 3.2 3.2 0 0 1 1.08-2.37 7 7 0 0 1 5.05-1.63 1.81 1.81 0 0 0 .94-.15c.13-.1.19-.33.19-.69a5.06 5.06 0 0 0-.28-2 1 1 0 0 0-.93-.61 1.09 1.09 0 0 0-.69.24 4.18 4.18 0 0 0-.75.84 3.11 3.11 0 0 1-2.4 1.66 1.43 1.43 0 0 1-1-.37 1.27 1.27 0 0 1-.4-1 2 2 0 0 1 .49-1.24 4.4 4.4 0 0 1 1.35-1.08A10.26 10.26 0 0 1 25 5.1zm-.86 7.45a1.27 1.27 0 0 0-1 .46 1.75 1.75 0 0 0-.13 2.1.94.94 0 0 0 .79.38c.69 0 1-.57 1-1.73a2.1 2.1 0 0 0-.15-1 .63.63 0 0 0-.51-.21zM38.6 5.19c.46 0 .74.06.83.19a3.42 3.42 0 0 1 .27 1.23c0 .38.17.57.4.57s.33-.12.49-.37a3.09 3.09 0 0 1 2.69-1.61 2.53 2.53 0 0 1 1.91.8 3 3 0 0 1 .6 1A3.11 3.11 0 0 1 46 8a3.07 3.07 0 0 1-.29 1.25 3.08 3.08 0 0 1-.73 1 2.79 2.79 0 0 1-2 .79 2.42 2.42 0 0 1-1.1-.23 6 6 0 0 1-1.17-.81.72.72 0 0 0-.5-.27.47.47 0 0 0-.47.4 8.44 8.44 0 0 0-.11 1.71 15.25 15.25 0 0 0 .15 2.65A1 1 0 0 0 40 15a1.88 1.88 0 0 0 .68.31c.78.23 1.16.63 1.16 1.2a1.27 1.27 0 0 1-.37.92 1.84 1.84 0 0 1-1 .53 19.32 19.32 0 0 1-3.63.25 11.3 11.3 0 0 1-3.46-.4c-.71-.24-1.06-.65-1.06-1.24a1.47 1.47 0 0 1 .78-1.2 2 2 0 0 0 .51-.44 1.19 1.19 0 0 0 .19-.55 29.27 29.27 0 0 0 .25-4.38 1.9 1.9 0 0 0-.13-.83.93.93 0 0 0-.51-.4c-.61-.24-.92-.59-.92-1a1.29 1.29 0 0 1 .63-1.06 7.89 7.89 0 0 1 2.11-.88 12.38 12.38 0 0 1 3.37-.64zM53.38 1l-.12 4v1.77a14.4 14.4 0 0 0 0 1.54c.06.35.24.52.54.52a2.61 2.61 0 0 0 1.2-.47c.53-.33.8-.58.8-.74a1.13 1.13 0 0 0-.28-.52.85.85 0 0 1-.21-.51c0-.93 1.14-1.39 3.42-1.39a8.79 8.79 0 0 1 2.81.36 1.44 1.44 0 0 1 .68.49 1.19 1.19 0 0 1 .27.74.83.83 0 0 1-.55.82 5.48 5.48 0 0 1-.75.16 4.36 4.36 0 0 0-1.46.7c-.61.4-.91.69-.91.87a8.91 8.91 0 0 0 1.1 1.66l2 2.63a10 10 0 0 0 .94 1 7.07 7.07 0 0 0 1 .63q.93.49.93 1.14a1.22 1.22 0 0 1-.59 1.07 2.85 2.85 0 0 1-1.6.39h-4.19a1.51 1.51 0 0 1-1.22-.58l-2.14-2.74-1-1.29c-.09-.14-.22-.21-.31-.21s-.17.08-.21.23a5.43 5.43 0 0 0-.05.88 2.09 2.09 0 0 0 .13.84 2.17 2.17 0 0 0 .59.64 1 1 0 0 1 .34.8 1.36 1.36 0 0 1-1 1.3 8.93 8.93 0 0 1-3.13.4 16 16 0 0 1-3.35-.13 1.53 1.53 0 0 1-.75-.52 1.38 1.38 0 0 1-.31-.83 1 1 0 0 1 .54-.85 3.42 3.42 0 0 0 .6-.45 1.34 1.34 0 0 0 .2-.49 37.53 37.53 0 0 0 .29-5.56V6.46a6.77 6.77 0 0 0-.15-1.84.82.82 0 0 0-.73-.48q-1.05-.13-1-.87a1.12 1.12 0 0 1 .46-.88 5.23 5.23 0 0 1 1.52-.78 16.33 16.33 0 0 1 5-1.25c.43 0 .67.21.65.64zm19.04 5v7.47a4 4 0 0 0 .16 1.3 1.76 1.76 0 0 0 .65.76 2.27 2.27 0 0 1 .54.48.92.92 0 0 1 .13.51c0 1.11-1.4 1.66-4.21 1.66a14.27 14.27 0 0 1-3.59-.36 1.35 1.35 0 0 1-.72-.45 1.06 1.06 0 0 1-.28-.73.94.94 0 0 1 .14-.54 4.11 4.11 0 0 1 .72-.62 1.64 1.64 0 0 0 .57-1 9 9 0 0 0 .17-2q0-.42-.06-1.59c0-.77-.07-1.23-.09-1.36a1.07 1.07 0 0 0-.72-.81 1.1 1.1 0 0 1-.79-1c0-.54.34-.94 1-1.21a25.5 25.5 0 0 1 3.09-.94 12.42 12.42 0 0 1 2.54-.38c.52.01.75.27.75.81zM69.88.36a3.27 3.27 0 0 1 1.77.42 1.27 1.27 0 0 1 .66 1.12 1.74 1.74 0 0 1-1 1.57 7.45 7.45 0 0 1-3.8.92A2.69 2.69 0 0 1 66 4a1.45 1.45 0 0 1-.75-1.29c0-.74.53-1.32 1.58-1.74a8.37 8.37 0 0 1 3.05-.61z" fill="#000"/><path d="M90.27 9.86l.18 4.53a1.92 1.92 0 0 0 .16.76 7.63 7.63 0 0 0 .79.94.8.8 0 0 1 .2.58c0 .56-.34 1-1 1.18a13.48 13.48 0 0 1-3.63.33 7.06 7.06 0 0 1-2.51-.31 1.09 1.09 0 0 1-.76-1 .74.74 0 0 1 .08-.38 6.76 6.76 0 0 1 .51-.6c.35-.36.52-1.56.52-3.6a6.37 6.37 0 0 0-.41-2.62 1.26 1.26 0 0 0-1.24-.69A1.25 1.25 0 0 0 82 9.5a4.29 4.29 0 0 0-.32 2v2.55a3.91 3.91 0 0 0 .09 1 6.74 6.74 0 0 0 .64 1.1 1 1 0 0 1 .14.53c0 .5-.35.88-1.05 1.12a11.06 11.06 0 0 1-3.3.36c-2.38 0-3.58-.5-3.58-1.48a.83.83 0 0 1 .11-.47 2.48 2.48 0 0 1 .53-.46 1.06 1.06 0 0 0 .42-.56 9.72 9.72 0 0 0 .17-1.55l.09-3.08a3.1 3.1 0 0 0-.14-1.16 2.11 2.11 0 0 0-.8-.64 1 1 0 0 1-.1-1.69 8.77 8.77 0 0 1 1.85-.83l2.38-.74a7.69 7.69 0 0 1 1.57-.3.83.83 0 0 1 .65.28.94.94 0 0 1 .27.67v.32.18c0 .41.17.62.52.62.2 0 .42-.16.65-.49A3.68 3.68 0 0 1 86 5.19a4.55 4.55 0 0 1 2.74.81 3.18 3.18 0 0 1 1.13 1.42 7.67 7.67 0 0 1 .4 2.44zM100.14 0a12.59 12.59 0 0 1 3.48.66 1.46 1.46 0 0 0 .41.07 3.55 3.55 0 0 0 .77-.23 1.27 1.27 0 0 1 .44-.08c.57 0 1.18.46 1.82 1.37a4.55 4.55 0 0 1 1 2.6 1.77 1.77 0 0 1-.44 1.21 1.32 1.32 0 0 1-1 .5 1.49 1.49 0 0 1-.84-.21 13.58 13.58 0 0 1-1.42-1.22 4.53 4.53 0 0 0-3-1.44 1.77 1.77 0 0 0-1.15.35 1.1 1.1 0 0 0-.43.91c0 .75.65 1.31 2 1.69A27.82 27.82 0 0 1 105 7.32c2.19 1.07 3.29 2.63 3.29 4.7a5.43 5.43 0 0 1-2.24 4.48 9.54 9.54 0 0 1-6 1.77 16.62 16.62 0 0 1-3.47-.39A8.27 8.27 0 0 1 94 17a3.57 3.57 0 0 1-1.11-1.79 8.07 8.07 0 0 1-.5-2.7 1.49 1.49 0 0 1 .26-1 1 1 0 0 1 .81-.41 1.25 1.25 0 0 1 .94.5 19.28 19.28 0 0 1 1.27 1.81 3.54 3.54 0 0 0 1.51 1.2 5.09 5.09 0 0 0 2.15.47 2.93 2.93 0 0 0 1.54-.35 1 1 0 0 0 .59-.91A1.08 1.08 0 0 0 101 13a4.75 4.75 0 0 0-1.51-.7 19.65 19.65 0 0 1-2.8-1.06A8.53 8.53 0 0 1 94.88 10a5.35 5.35 0 0 1-2-4.09 5 5 0 0 1 .53-2.21 5.56 5.56 0 0 1 1.5-1.86A8 8 0 0 1 100.14 0zm15.51 5.17a2 2 0 0 1 1 .14c.13.09.2.31.2.67s.1.48.31.48A3.32 3.32 0 0 0 118 6a4.86 4.86 0 0 1 1.41-.62A5.47 5.47 0 0 1 121 5.1a4.27 4.27 0 0 1 2.92 1.13 5.79 5.79 0 0 1 1.52 2.17 7.53 7.53 0 0 1 .57 2.9 7.08 7.08 0 0 1-2.19 5.34 5.37 5.37 0 0 1-3.84 1.63 5.55 5.55 0 0 1-2.25-.51.93.93 0 0 0-.37-.1c-.26 0-.39.25-.39.77a1.62 1.62 0 0 0 .68 1.46 5.66 5.66 0 0 1 .76.58.78.78 0 0 1 .12.49 1.3 1.3 0 0 1-.86 1.19 5.72 5.72 0 0 1-2.44.42 10.2 10.2 0 0 1-4.89-1.12c-.71-.38-1.06-.84-1.06-1.4a.92.92 0 0 1 .16-.59A1.8 1.8 0 0 1 110 19a1.4 1.4 0 0 0 .82-1.11 44.75 44.75 0 0 0 .22-4.66 22.36 22.36 0 0 0-.23-3.55.24.24 0 0 0-.15-.17 4.68 4.68 0 0 0-.63-.14 1.11 1.11 0 0 1-.93-1.11 1.33 1.33 0 0 1 .36-.91 3.74 3.74 0 0 1 1.17-.76 13.51 13.51 0 0 1 5.02-1.42zm1.27 4.83l-.19 3.54v.42a.74.74 0 0 0 .35.64 1.53 1.53 0 0 0 .93.25c1.18 0 1.77-1 1.77-2.92A3.81 3.81 0 0 0 119 9.3a1.52 1.52 0 0 0-1.11-.47c-.59 0-.89.4-.97 1.17zm17.31-4.9A6.27 6.27 0 0 1 138 6.23a3.39 3.39 0 0 1 1.15 1.38 5.64 5.64 0 0 1 .32 2.14v1.92a7.36 7.36 0 0 0 .28 2.59 1 1 0 0 0 .27.36 1.8 1.8 0 0 0 .54.14.47.47 0 0 1 .42.54 2.22 2.22 0 0 1-.5 1.29 4.22 4.22 0 0 1-1.28 1.12 4 4 0 0 1-2 .56 2.69 2.69 0 0 1-2.14-.92c-.18-.23-.34-.34-.5-.34a1.3 1.3 0 0 0-.68.32 4.81 4.81 0 0 1-2.92.94 4.69 4.69 0 0 1-2.73-.72 3.25 3.25 0 0 1-1.08-1.24 3.36 3.36 0 0 1-.4-1.6 3.2 3.2 0 0 1 1.08-2.37 7 7 0 0 1 5.05-1.63 1.77 1.77 0 0 0 .93-.15c.13-.1.2-.33.2-.69a5 5 0 0 0-.29-2 1 1 0 0 0-.92-.61 1.07 1.07 0 0 0-.69.24 4.18 4.18 0 0 0-.75.84A3.12 3.12 0 0 1 129 10a1.45 1.45 0 0 1-1-.37 1.31 1.31 0 0 1-.4-1 2 2 0 0 1 .5-1.24 4.4 4.4 0 0 1 1.35-1.08 10.26 10.26 0 0 1 4.78-1.21zm-.86 7.45a1.29 1.29 0 0 0-1 .46 1.6 1.6 0 0 0-.42 1.11 1.54 1.54 0 0 0 .3 1 .93.93 0 0 0 .78.38c.69 0 1-.57 1-1.73a2.1 2.1 0 0 0-.15-1 .64.64 0 0 0-.51-.22zm15.79-7.44a7.26 7.26 0 0 1 4 1.14 3.22 3.22 0 0 1 1.7 2.75 2.3 2.3 0 0 1-.78 1.81 2.46 2.46 0 0 1-1.73.66 1.85 1.85 0 0 1-1.61-.77 6.21 6.21 0 0 1-.49-1.25 1.33 1.33 0 0 0-1.33-1.08 1.45 1.45 0 0 0-1.19.62 2.39 2.39 0 0 0-.48 1.51 3.94 3.94 0 0 0 1.11 2.75 3 3 0 0 0 2.26 1 4.82 4.82 0 0 0 1.09-.11 6.52 6.52 0 0 0 1.14-.44.87.87 0 0 1 .4-.09 1 1 0 0 1 .75.39 1.51 1.51 0 0 1 .34 1 2 2 0 0 1-.48 1.21 4.22 4.22 0 0 1-1.25 1.11 7.34 7.34 0 0 1-3.95 1 6.86 6.86 0 0 1-4.52-1.54 6.18 6.18 0 0 1-2.39-5A6 6 0 0 1 144 6.94a7.61 7.61 0 0 1 5.16-1.83zm18.42 7.05h-6c-.27 0-.4.12-.4.35a2.05 2.05 0 0 0 .9 1.57 3 3 0 0 0 2 .74 4.46 4.46 0 0 0 1.37-.23 4.55 4.55 0 0 0 1.25-.59 1.32 1.32 0 0 1 .69-.31.91.91 0 0 1 .66.41 1.41 1.41 0 0 1 .32.85 2.34 2.34 0 0 1-1.16 1.79 7.67 7.67 0 0 1-4.72 1.53 6.7 6.7 0 0 1-4.53-1.57 6.44 6.44 0 0 1-1.47-1.86 6.61 6.61 0 0 1-.76-3.07A6.22 6.22 0 0 1 157 7.89a6.82 6.82 0 0 1 2.88-2.23 7.19 7.19 0 0 1 2.84-.55 6.37 6.37 0 0 1 4.16 1.39 5.51 5.51 0 0 1 1.39 1.65 4.32 4.32 0 0 1 .6 2.11 2.51 2.51 0 0 1-.34 1.37 1.07 1.07 0 0 1-.95.53zm-5.71-2.41h1.3c.55 0 .82-.25.82-.75a1.6 1.6 0 0 0-.4-1.14 1.34 1.34 0 0 0-1-.44 1.31 1.31 0 0 0-1.13.57 1.79 1.79 0 0 0-.46 1.07.68.68 0 0 0 .19.54 1.05 1.05 0 0 0 .68.15z" fill="#000"/></svg>