<svg width="16" height="16" viewBox="0 0 16 16" fill="none" xmlns="http://www.w3.org/2000/svg">
<path d="M11.3333 14C11.3333 12.1591 9.84095 10.6667 8 10.6667C6.15905 10.6667 4.66667 12.1591 4.66667 14M11.3333 14H11.8687C12.614 14 12.9867 14 13.2716 13.8548C13.5225 13.727 13.727 13.5225 13.8548 13.2716C14 12.9867 14 12.614 14 11.8687V4.13127C14 3.386 14 3.0128 13.8548 2.72786C13.727 2.47698 13.5225 2.27316 13.2716 2.14532C12.9864 2 12.6135 2 11.8668 2H4.13346C3.38673 2 3.01308 2 2.72786 2.14532C2.47698 2.27316 2.27316 2.47698 2.14532 2.72786C2 3.01308 2 3.38673 2 4.13346V11.8668C2 12.6135 2 12.9864 2.14532 13.2716C2.27316 13.5225 2.47698 13.727 2.72786 13.8548C3.0128 14 3.386 14 4.13127 14H4.66667M11.3333 14H4.66667M8 8.66667C6.89543 8.66667 6 7.77124 6 6.66667C6 5.5621 6.89543 4.66667 8 4.66667C9.10457 4.66667 10 5.5621 10 6.66667C10 7.77124 9.10457 8.66667 8 8.66667Z" stroke="#444648" stroke-width="1.2" stroke-linecap="round" stroke-linejoin="round"/>
</svg>
