<svg width="16" height="17" viewBox="0 0 16 17" fill="none" xmlns="http://www.w3.org/2000/svg">
<path d="M5.33326 15.1667H10.6666C13.3466 15.1667 13.8266 14.0933 13.9666 12.7867L14.4666 7.45333C14.6466 5.82667 14.1799 4.5 11.3333 4.5H4.66659C1.81993 4.5 1.35326 5.82667 1.53326 7.45333L2.03326 12.7867C2.17326 14.0933 2.65326 15.1667 5.33326 15.1667Z" stroke="#075666" stroke-miterlimit="10" stroke-linecap="round" stroke-linejoin="round"/>
<path opacity="0.4" d="M5.33337 4.50016V3.96683C5.33337 2.78683 5.33337 1.8335 7.46671 1.8335H8.53337C10.6667 1.8335 10.6667 2.78683 10.6667 3.96683V4.50016" stroke="#075666" stroke-miterlimit="10" stroke-linecap="round" stroke-linejoin="round"/>
<g opacity="0.4">
<path d="M9.33329 9.16667V9.83333C9.33329 9.84 9.33329 9.84 9.33329 9.84667C9.33329 10.5733 9.32663 11.1667 7.99996 11.1667C6.67996 11.1667 6.66663 10.58 6.66663 9.85333V9.16667C6.66663 8.5 6.66663 8.5 7.33329 8.5H8.66663C9.33329 8.5 9.33329 8.5 9.33329 9.16667Z" stroke="#075666" stroke-miterlimit="10" stroke-linecap="round" stroke-linejoin="round"/>
<path d="M14.4334 7.8335C12.8934 8.9535 11.1334 9.62016 9.33337 9.84683" stroke="#075666" stroke-miterlimit="10" stroke-linecap="round" stroke-linejoin="round"/>
<path d="M1.74609 8.01318C3.24609 9.03985 4.93943 9.65985 6.66609 9.85318" stroke="#075666" stroke-miterlimit="10" stroke-linecap="round" stroke-linejoin="round"/>
</g>
</svg>
