<svg xmlns="http://www.w3.org/2000/svg" width="20" height="20" fill="none" xmlns:v="https://vecta.io/nano"><path d="M11.667 8.333v5.833M8.333 8.333v5.833M5 5v9.833c0 .934 0 1.4.182 1.756.16.314.415.569.728.729.356.181.823.181 1.754.181h4.672c.932 0 1.397 0 1.754-.181a1.67 1.67 0 0 0 .729-.729c.181-.356.181-.822.181-1.754V5M5 5h1.667M5 5H3.333m3.333 0h6.667M6.667 5c0-.777 0-1.165.127-1.471.169-.408.493-.733.902-.902.306-.127.695-.127 1.471-.127h1.667c.777 0 1.165 0 1.471.127.408.169.733.494.902.902.127.306.127.694.127 1.471m0 0H15m0 0h1.667" stroke="#ee383a" stroke-width="1.22" stroke-linecap="round" stroke-linejoin="round"/></svg>