<svg xmlns="http://www.w3.org/2000/svg" width="20" height="20" viewBox="0 0 20 20" fill="none">
<path d="M6.66536 3.33341H5.99886C5.06544 3.33341 4.59838 3.33341 4.24186 3.51507C3.92826 3.67486 3.67348 3.92964 3.51369 4.24325C3.33203 4.59976 3.33203 5.06682 3.33203 6.00024V6.66675M6.66536 3.33341H13.332M6.66536 3.33341V1.66675M13.332 3.33341H13.9989C14.9323 3.33341 15.3983 3.33341 15.7549 3.51507C16.0685 3.67486 16.3241 3.92964 16.4839 4.24325C16.6654 4.59942 16.6654 5.06591 16.6654 5.99751V6.66675M13.332 3.33341V1.66675M3.33203 6.66675V14.0002C3.33203 14.9337 3.33203 15.4001 3.51369 15.7567C3.67348 16.0703 3.92826 16.3255 4.24186 16.4853C4.59803 16.6667 5.06453 16.6667 5.99612 16.6667H14.0013C14.9329 16.6667 15.3987 16.6667 15.7549 16.4853C16.0685 16.3255 16.3241 16.0703 16.4839 15.7567C16.6654 15.4005 16.6654 14.9347 16.6654 14.0031V6.66675M3.33203 6.66675H16.6654M13.332 13.3334H13.3337L13.3337 13.3351L13.332 13.335V13.3334ZM9.9987 13.3334H10.0004L10.0003 13.3351L9.9987 13.335V13.3334ZM6.66536 13.3334H6.66703L6.66699 13.3351L6.66536 13.335V13.3334ZM13.3337 10.0001V10.0017L13.332 10.0017V10.0001H13.3337ZM9.9987 10.0001H10.0004L10.0003 10.0017L9.9987 10.0017V10.0001ZM6.66536 10.0001H6.66703L6.66699 10.0017L6.66536 10.0017V10.0001Z" stroke="#EE383A" stroke-width="1.2" stroke-linecap="round" stroke-linejoin="round"/>
</svg>