<svg xmlns="http://www.w3.org/2000/svg" width="32" height="32" fill="none" xmlns:v="https://vecta.io/nano"><path d="M12.652 9.333H8.267c-1.493 0-2.241 0-2.811.291-.502.256-.909.663-1.165 1.165C4 11.359 4 12.107 4 13.6v7.467c0 1.493 0 2.239.291 2.81a2.67 2.67 0 0 0 1.165 1.166c.57.29 1.316.29 2.807.29h15.475c1.491 0 2.236 0 2.806-.29a2.67 2.67 0 0 0 1.166-1.166c.29-.57.29-1.315.29-2.806v-7.475c0-1.491 0-2.237-.29-2.807a2.67 2.67 0 0 0-1.166-1.165c-.57-.291-1.316-.291-2.81-.291h-4.386m-6.696 0h.082m-.082 0h.053.03m-.082 0l-.284-.008c-.783-.088-1.321-.833-1.156-1.604a3.76 3.76 0 0 1 .106-.342l.003-.008.141-.399c.387-.927 1.263-1.558 2.266-1.632.098-.007.205-.007.422-.007h3.703l.423.007c1.002.074 1.878.705 2.265 1.632.038.091.072.193.141.398l.108.35c.165.771-.372 1.517-1.155 1.604-.063.007-.143.008-.285.008m-6.613 0h6.531m0 0h.082m-.082 0h.03.053m-3.348 12a4 4 0 0 1 0-8 4 4 0 0 1 0 8z" stroke="#fff" stroke-width="2" stroke-linecap="round" stroke-linejoin="round"/></svg>