<svg width="237" height="89" viewBox="0 0 237 89" fill="none" xmlns="http://www.w3.org/2000/svg">
<g clip-path="url(#clip0_349_389)">
<path opacity="0.2" d="M-247.001 88.3431L236.136 88.3431" stroke="#C4C6C8" stroke-width="0.784314"/>
<path opacity="0.2" d="M0.84259 0.5L0.842587 72.6569" stroke="#C4C6C8" stroke-width="0.784314"/>
<path opacity="0.2" d="M82.4113 0.5L82.4113 72.6569" stroke="#C4C6C8" stroke-width="0.784314"/>
<path opacity="0.2" d="M163.979 0.5L163.979 72.6569" stroke="#C4C6C8" stroke-width="0.784314"/>
<path opacity="0.2" d="M66.7246 0.5L66.7246 72.6569" stroke="#C4C6C8" stroke-width="0.784314"/>
<path opacity="0.2" d="M148.294 0.500244L148.294 72.6571" stroke="#C4C6C8" stroke-width="0.784314"/>
<path opacity="0.2" d="M-247.001 72.6569L236.136 72.6569" stroke="#C4C6C8" stroke-width="0.784314"/>
<rect x="-14.4515" y="67.167" width="14.902" height="10.1961" fill="#242424"/>
<rect x="67.1171" y="67.1666" width="14.902" height="10.1961" fill="#242424"/>
<rect x="148.686" y="67.1666" width="14.902" height="10.1961" fill="#242424"/>
<path d="M25.706 64.5153L27.0613 64.5153C27.6919 64.5153 27.7813 64.4211 27.8566 64.4211C28.1248 64.4211 28.2377 64.8823 28.2377 65.0894C28.2377 65.2447 28.1766 65.4282 27.993 65.4282C27.6213 65.4282 27.9224 64.9764 27.0283 64.9764C26.506 64.9764 26.5577 65.0706 26.5577 65.6117C26.5577 65.8847 26.5719 65.8941 26.8589 65.8941C27.2166 65.8941 26.9483 65.3717 27.2824 65.3717C27.5554 65.3717 27.5742 65.9035 27.5742 66.087C27.5742 66.28 27.5413 66.8447 27.2589 66.8447C26.9671 66.8447 27.2589 66.3506 26.7836 66.3506C26.586 66.3506 26.5907 66.5294 26.5907 66.68C26.5907 67.367 26.6377 67.3341 27.1319 67.3341C28.0966 67.3341 27.8236 66.6706 28.2095 66.6706C28.3601 66.6706 28.4354 66.84 28.4354 66.9717C28.4354 67.2917 28.1813 67.8659 27.993 67.8659C27.9601 67.8659 27.8848 67.8517 27.786 67.8376C27.6824 67.8282 27.5507 67.8141 27.3907 67.8141L25.4566 67.8141C25.146 67.8141 25.1413 67.6729 25.1413 67.6117C25.1413 67.3529 25.4613 67.56 25.4942 67.0611C25.5507 66.2047 25.5554 66.2894 25.5083 65.4376C25.4754 64.7176 25.1177 65.0894 25.1177 64.7553C25.1177 64.4682 25.513 64.5153 25.706 64.5153ZM31.4687 64.9482L30.457 66.6894C30.4146 66.76 30.2499 67.0376 30.2499 67.1176C30.2499 67.2306 30.504 67.2259 30.5746 67.2259C31.3981 67.2259 31.1299 66.6047 31.4875 66.6047C31.7228 66.6047 31.8264 66.7459 31.8264 66.967C31.8264 67.4753 31.5158 67.8564 31.3511 67.8564C31.3275 67.8564 31.2381 67.847 31.1393 67.8329C31.0405 67.8235 30.9323 67.8141 30.8664 67.8141L28.8805 67.8141C28.7205 67.8141 28.5464 67.8564 28.5464 67.6353C28.5464 67.5459 28.6028 67.4706 28.6452 67.4L29.8311 65.3859C29.8546 65.3482 29.9158 65.2588 29.9158 65.207C29.9158 65.0847 29.7228 65.0706 29.6052 65.0706C29.0123 65.0706 29.1581 65.7059 28.824 65.7059C28.6311 65.7059 28.4993 65.4847 28.4993 65.3059C28.4993 64.9482 28.824 64.4588 28.937 64.4588C28.9605 64.4588 28.9934 64.4729 29.0875 64.4917C29.1864 64.5059 29.3558 64.5153 29.6475 64.5153C29.8499 64.5153 30.2123 64.5106 30.5605 64.487C30.904 64.4682 31.2287 64.4494 31.3417 64.4494C31.4781 64.4494 31.5817 64.5341 31.5817 64.68C31.5817 64.7647 31.5064 64.8776 31.4687 64.9482ZM34.0885 65.5459C34.0885 65.2494 33.9379 65.0047 33.6226 65.0047C33.4391 65.0047 33.4438 65.0611 33.4438 65.1553L33.4438 65.8611C33.4438 65.96 33.4014 66.0682 33.6556 66.0682C33.9662 66.0682 34.0885 65.8329 34.0885 65.5459ZM32.3614 67.0706L32.3614 65.2306C32.3614 64.8776 31.9238 65.0329 31.9238 64.7364C31.9238 64.5482 32.1309 64.5059 32.2767 64.5059C32.3944 64.5059 32.5073 64.5153 32.625 64.5153C33.3073 64.5153 33.7214 64.4494 33.9191 64.4494C34.5591 64.4494 35.1756 64.8211 35.1756 65.527C35.1756 66.2282 34.5826 66.6047 33.9285 66.6047C33.7873 66.6047 33.6462 66.5811 33.5191 66.5811C33.4626 66.5811 33.4438 66.6047 33.4438 66.6564L33.4438 66.9294C33.4579 67.5176 33.8014 67.2729 33.8014 67.5459C33.8014 67.8517 33.1238 67.8659 32.912 67.8659C32.7144 67.8659 32.0179 67.8611 32.0179 67.5553C32.0179 67.2964 32.3614 67.4564 32.3614 67.0706ZM36.5532 66.8023C36.3932 66.8023 36.285 66.9529 36.285 67.1035C36.285 67.2259 36.3509 67.3576 36.4873 67.3576C36.6662 67.3576 36.6803 67.1647 36.6803 67.0235C36.6803 66.92 36.685 66.8023 36.5532 66.8023ZM37.6967 66.2188L37.6967 66.6894C37.6967 67.5176 37.9791 67.0659 37.9791 67.32C37.9791 67.5882 37.612 67.88 37.2685 67.88C36.8967 67.88 36.8873 67.64 36.7697 67.64C36.7132 67.64 36.652 67.7011 36.5485 67.7576C36.445 67.8188 36.3038 67.88 36.0873 67.88C35.6967 67.88 35.3062 67.6729 35.3062 67.207C35.3062 66.8729 35.6262 66.4588 36.4544 66.4588C36.6003 66.4588 36.6662 66.4682 36.6662 66.2988C36.6662 66.1435 36.6614 65.8188 36.445 65.8188C36.1626 65.8188 36.1344 66.327 35.7156 66.327C35.565 66.327 35.452 66.2188 35.452 66.0682C35.452 65.6682 36.2473 65.4094 36.6944 65.4094C36.9626 65.4094 37.6967 65.5129 37.6967 66.2188ZM38.4106 66.6706L38.4106 66.3882C38.4106 65.927 38.1189 66.1859 38.1189 65.8988C38.1189 65.527 39.22 65.4235 39.2624 65.4235C39.4412 65.4235 39.4459 65.4706 39.4648 65.6306C39.4695 65.687 39.4648 65.7953 39.5448 65.7953C39.6577 65.7953 39.7283 65.4235 40.133 65.4235C40.4483 65.4235 40.6553 65.6588 40.6553 65.9694C40.6553 66.2847 40.3871 66.5341 40.0765 66.5341C39.7706 66.5341 39.6859 66.2659 39.5636 66.2659C39.4318 66.2659 39.4553 66.5811 39.4553 66.6659C39.4553 66.807 39.4695 67.0047 39.493 67.1835C39.5212 67.3906 39.8789 67.2635 39.8789 67.5459C39.8789 67.8423 39.4648 67.8659 38.9471 67.8659C38.7306 67.8659 38.0906 67.8753 38.0906 67.5506C38.0906 67.3529 38.3071 67.3529 38.3589 67.1882C38.3965 67.0706 38.4106 66.8023 38.4106 66.6706ZM42.8555 67.6588L42.4178 67.0988C42.399 67.0706 42.286 66.9106 42.239 66.9106C42.1872 66.9106 42.1919 67.0141 42.1919 67.0423C42.1778 67.4611 42.3849 67.32 42.3849 67.5411C42.3849 67.6729 42.3519 67.8659 41.6178 67.8659C41.2319 67.8659 40.7943 67.88 40.7943 67.5694C40.7943 67.3435 41.0437 67.5082 41.0578 67.1129C41.0719 66.7835 41.0955 66.3364 41.0955 66.1294L41.0955 65.4564C41.0955 65.0753 40.7331 65.3294 40.7331 65.0611C40.7331 64.7459 41.7966 64.5153 42.046 64.5153C42.1731 64.5153 42.1825 64.5906 42.1778 64.6941L42.1543 65.6917C42.1449 65.9929 42.1449 66.1106 42.2578 66.1106C42.3331 66.1106 42.6343 65.9506 42.6343 65.88C42.6343 65.8141 42.5402 65.7764 42.5402 65.6823C42.5402 65.4376 43.0202 65.4235 43.1849 65.4235C43.3778 65.4235 43.8907 65.4282 43.8907 65.72C43.8907 65.9317 43.7166 65.8329 43.4343 66.007C43.3872 66.0306 43.2037 66.1247 43.2037 66.1811C43.2037 66.2988 43.7543 66.9764 43.8437 67.0847C44.0555 67.3482 44.3143 67.3435 44.3143 67.5411C44.3143 67.687 44.206 67.8141 43.8437 67.8141L43.1802 67.8141C42.9919 67.8141 42.9684 67.8047 42.8555 67.6588Z" fill="#242424"/>
<path d="M107.275 64.5153L108.63 64.5153C109.26 64.5153 109.35 64.4211 109.425 64.4211C109.693 64.4211 109.806 64.8823 109.806 65.0894C109.806 65.2447 109.745 65.4282 109.562 65.4282C109.19 65.4282 109.491 64.9764 108.597 64.9764C108.075 64.9764 108.126 65.0706 108.126 65.6117C108.126 65.8847 108.14 65.8941 108.428 65.8941C108.785 65.8941 108.517 65.3717 108.851 65.3717C109.124 65.3717 109.143 65.9035 109.143 66.087C109.143 66.28 109.11 66.8447 108.828 66.8447C108.536 66.8447 108.828 66.3506 108.352 66.3506C108.155 66.3506 108.159 66.5294 108.159 66.68C108.159 67.367 108.206 67.3341 108.7 67.3341C109.665 67.3341 109.392 66.6706 109.778 66.6706C109.929 66.6706 110.004 66.84 110.004 66.9717C110.004 67.2917 109.75 67.8659 109.562 67.8659C109.529 67.8659 109.453 67.8517 109.355 67.8376C109.251 67.8282 109.119 67.8141 108.959 67.8141L107.025 67.8141C106.715 67.8141 106.71 67.6729 106.71 67.6117C106.71 67.3529 107.03 67.56 107.063 67.0611C107.119 66.2047 107.124 66.2894 107.077 65.4376C107.044 64.7176 106.686 65.0894 106.686 64.7553C106.686 64.4682 107.082 64.5153 107.275 64.5153ZM113.037 64.9482L112.026 66.6894C111.983 66.76 111.819 67.0376 111.819 67.1176C111.819 67.2306 112.073 67.2259 112.143 67.2259C112.967 67.2259 112.699 66.6047 113.056 66.6047C113.291 66.6047 113.395 66.7459 113.395 66.967C113.395 67.4753 113.084 67.8564 112.92 67.8564C112.896 67.8564 112.807 67.847 112.708 67.8329C112.609 67.8235 112.501 67.8141 112.435 67.8141L110.449 67.8141C110.289 67.8141 110.115 67.8564 110.115 67.6353C110.115 67.5459 110.171 67.4706 110.214 67.4L111.4 65.3859C111.423 65.3482 111.484 65.2588 111.484 65.207C111.484 65.0847 111.291 65.0706 111.174 65.0706C110.581 65.0706 110.727 65.7059 110.393 65.7059C110.2 65.7059 110.068 65.4847 110.068 65.3059C110.068 64.9482 110.393 64.4588 110.506 64.4588C110.529 64.4588 110.562 64.4729 110.656 64.4917C110.755 64.5059 110.924 64.5153 111.216 64.5153C111.419 64.5153 111.781 64.5106 112.129 64.487C112.473 64.4682 112.797 64.4494 112.91 64.4494C113.047 64.4494 113.15 64.5341 113.15 64.68C113.15 64.7647 113.075 64.8776 113.037 64.9482ZM115.657 65.5459C115.657 65.2494 115.507 65.0047 115.191 65.0047C115.008 65.0047 115.012 65.0611 115.012 65.1553L115.012 65.8611C115.012 65.96 114.97 66.0682 115.224 66.0682C115.535 66.0682 115.657 65.8329 115.657 65.5459ZM113.93 67.0706L113.93 65.2306C113.93 64.8776 113.492 65.0329 113.492 64.7364C113.492 64.5482 113.699 64.5059 113.845 64.5059C113.963 64.5059 114.076 64.5153 114.194 64.5153C114.876 64.5153 115.29 64.4494 115.488 64.4494C116.128 64.4494 116.744 64.8211 116.744 65.527C116.744 66.2282 116.151 66.6047 115.497 66.6047C115.356 66.6047 115.215 66.5811 115.088 66.5811C115.031 66.5811 115.012 66.6047 115.012 66.6564L115.012 66.9294C115.027 67.5176 115.37 67.2729 115.37 67.5459C115.37 67.8517 114.692 67.8659 114.481 67.8659C114.283 67.8659 113.587 67.8611 113.587 67.5553C113.587 67.2964 113.93 67.4564 113.93 67.0706ZM118.122 66.8023C117.962 66.8023 117.854 66.9529 117.854 67.1035C117.854 67.2259 117.919 67.3576 118.056 67.3576C118.235 67.3576 118.249 67.1647 118.249 67.0235C118.249 66.92 118.254 66.8023 118.122 66.8023ZM119.265 66.2188L119.265 66.6894C119.265 67.5176 119.548 67.0659 119.548 67.32C119.548 67.5882 119.181 67.88 118.837 67.88C118.465 67.88 118.456 67.64 118.338 67.64C118.282 67.64 118.221 67.7011 118.117 67.7576C118.014 67.8188 117.872 67.88 117.656 67.88C117.265 67.88 116.875 67.6729 116.875 67.207C116.875 66.8729 117.195 66.4588 118.023 66.4588C118.169 66.4588 118.235 66.4682 118.235 66.2988C118.235 66.1435 118.23 65.8188 118.014 65.8188C117.731 65.8188 117.703 66.327 117.284 66.327C117.134 66.327 117.021 66.2188 117.021 66.0682C117.021 65.6682 117.816 65.4094 118.263 65.4094C118.531 65.4094 119.265 65.5129 119.265 66.2188ZM119.979 66.6706L119.979 66.3882C119.979 65.927 119.687 66.1859 119.687 65.8988C119.687 65.527 120.789 65.4235 120.831 65.4235C121.01 65.4235 121.015 65.4706 121.033 65.6306C121.038 65.687 121.033 65.7953 121.113 65.7953C121.226 65.7953 121.297 65.4235 121.702 65.4235C122.017 65.4235 122.224 65.6588 122.224 65.9694C122.224 66.2847 121.956 66.5341 121.645 66.5341C121.339 66.5341 121.255 66.2659 121.132 66.2659C121 66.2659 121.024 66.5811 121.024 66.6659C121.024 66.807 121.038 67.0047 121.062 67.1835C121.09 67.3906 121.447 67.2635 121.447 67.5459C121.447 67.8423 121.033 67.8659 120.516 67.8659C120.299 67.8659 119.659 67.8753 119.659 67.5506C119.659 67.3529 119.876 67.3529 119.927 67.1882C119.965 67.0706 119.979 66.8023 119.979 66.6706ZM124.424 67.6588L123.986 67.0988C123.968 67.0706 123.855 66.9106 123.808 66.9106C123.756 66.9106 123.761 67.0141 123.761 67.0423C123.746 67.4611 123.953 67.32 123.953 67.5411C123.953 67.6729 123.921 67.8659 123.186 67.8659C122.801 67.8659 122.363 67.88 122.363 67.5694C122.363 67.3435 122.612 67.5082 122.626 67.1129C122.641 66.7835 122.664 66.3364 122.664 66.1294L122.664 65.4564C122.664 65.0753 122.302 65.3294 122.302 65.0611C122.302 64.7459 123.365 64.5153 123.615 64.5153C123.742 64.5153 123.751 64.5906 123.746 64.6941L123.723 65.6917C123.713 65.9929 123.713 66.1106 123.826 66.1106C123.902 66.1106 124.203 65.9506 124.203 65.88C124.203 65.8141 124.109 65.7764 124.109 65.6823C124.109 65.4376 124.589 65.4235 124.753 65.4235C124.946 65.4235 125.459 65.4282 125.459 65.72C125.459 65.9317 125.285 65.8329 125.003 66.007C124.956 66.0306 124.772 66.1247 124.772 66.1811C124.772 66.2988 125.323 66.9764 125.412 67.0847C125.624 67.3482 125.883 67.3435 125.883 67.5411C125.883 67.687 125.775 67.8141 125.412 67.8141L124.749 67.8141C124.561 67.8141 124.537 67.8047 124.424 67.6588Z" fill="#242424"/>
<path d="M191.981 64.5149L193.336 64.5149C193.967 64.5149 194.056 64.4208 194.131 64.4208C194.4 64.4208 194.513 64.882 194.513 65.089C194.513 65.2443 194.451 65.4278 194.268 65.4278C193.896 65.4278 194.197 64.9761 193.303 64.9761C192.781 64.9761 192.833 65.0702 192.833 65.6114C192.833 65.8843 192.847 65.8937 193.134 65.8937C193.491 65.8937 193.223 65.3714 193.557 65.3714C193.83 65.3714 193.849 65.9031 193.849 66.0867C193.849 66.2796 193.816 66.8443 193.534 66.8443C193.242 66.8443 193.534 66.3502 193.058 66.3502C192.861 66.3502 192.865 66.529 192.865 66.6796C192.865 67.3667 192.913 67.3337 193.407 67.3337C194.371 67.3337 194.098 66.6702 194.484 66.6702C194.635 66.6702 194.71 66.8396 194.71 66.9714C194.71 67.2914 194.456 67.8655 194.268 67.8655C194.235 67.8655 194.16 67.8514 194.061 67.8372C193.957 67.8278 193.825 67.8137 193.665 67.8137L191.731 67.8137C191.421 67.8137 191.416 67.6725 191.416 67.6114C191.416 67.3525 191.736 67.5596 191.769 67.0608C191.825 66.2043 191.83 66.289 191.783 65.4372C191.75 64.7172 191.393 65.089 191.393 64.7549C191.393 64.4678 191.788 64.5149 191.981 64.5149ZM197.744 64.9478L196.732 66.689C196.689 66.7596 196.525 67.0372 196.525 67.1172C196.525 67.2302 196.779 67.2255 196.849 67.2255C197.673 67.2255 197.405 66.6043 197.762 66.6043C197.998 66.6043 198.101 66.7455 198.101 66.9667C198.101 67.4749 197.791 67.8561 197.626 67.8561C197.602 67.8561 197.513 67.8467 197.414 67.8325C197.315 67.8231 197.207 67.8137 197.141 67.8137L195.155 67.8137C194.995 67.8137 194.821 67.8561 194.821 67.6349C194.821 67.5455 194.878 67.4702 194.92 67.3996L196.106 65.3855C196.129 65.3478 196.191 65.2584 196.191 65.2067C196.191 65.0843 195.998 65.0702 195.88 65.0702C195.287 65.0702 195.433 65.7055 195.099 65.7055C194.906 65.7055 194.774 65.4843 194.774 65.3055C194.774 64.9478 195.099 64.4584 195.212 64.4584C195.235 64.4584 195.268 64.4725 195.362 64.4914C195.461 64.5055 195.631 64.5149 195.922 64.5149C196.125 64.5149 196.487 64.5102 196.835 64.4867C197.179 64.4678 197.504 64.449 197.616 64.449C197.753 64.449 197.856 64.5337 197.856 64.6796C197.856 64.7643 197.781 64.8772 197.744 64.9478ZM200.363 65.5455C200.363 65.249 200.213 65.0043 199.897 65.0043C199.714 65.0043 199.719 65.0608 199.719 65.1549L199.719 65.8608C199.719 65.9596 199.676 66.0678 199.93 66.0678C200.241 66.0678 200.363 65.8325 200.363 65.5455ZM198.636 67.0702L198.636 65.2302C198.636 64.8772 198.199 65.0325 198.199 64.7361C198.199 64.5478 198.406 64.5055 198.552 64.5055C198.669 64.5055 198.782 64.5149 198.9 64.5149C199.582 64.5149 199.996 64.449 200.194 64.449C200.834 64.449 201.45 64.8208 201.45 65.5267C201.45 66.2278 200.857 66.6043 200.203 66.6043C200.062 66.6043 199.921 66.5808 199.794 66.5808C199.737 66.5808 199.719 66.6043 199.719 66.6561L199.719 66.929C199.733 67.5172 200.076 67.2725 200.076 67.5455C200.076 67.8514 199.399 67.8655 199.187 67.8655C198.989 67.8655 198.293 67.8608 198.293 67.5549C198.293 67.2961 198.636 67.4561 198.636 67.0702ZM202.828 66.802C202.668 66.802 202.56 66.9525 202.56 67.1031C202.56 67.2255 202.626 67.3572 202.762 67.3572C202.941 67.3572 202.955 67.1643 202.955 67.0231C202.955 66.9196 202.96 66.802 202.828 66.802ZM203.972 66.2184L203.972 66.689C203.972 67.5172 204.254 67.0655 204.254 67.3196C204.254 67.5878 203.887 67.8796 203.543 67.8796C203.172 67.8796 203.162 67.6396 203.044 67.6396C202.988 67.6396 202.927 67.7008 202.823 67.7572C202.72 67.8184 202.579 67.8796 202.362 67.8796C201.972 67.8796 201.581 67.6725 201.581 67.2067C201.581 66.8725 201.901 66.4584 202.729 66.4584C202.875 66.4584 202.941 66.4678 202.941 66.2984C202.941 66.1431 202.936 65.8184 202.72 65.8184C202.437 65.8184 202.409 66.3267 201.99 66.3267C201.84 66.3267 201.727 66.2184 201.727 66.0678C201.727 65.6678 202.522 65.409 202.969 65.409C203.237 65.409 203.972 65.5125 203.972 66.2184ZM204.685 66.6702L204.685 66.3878C204.685 65.9267 204.394 66.1855 204.394 65.8984C204.394 65.5267 205.495 65.4231 205.537 65.4231C205.716 65.4231 205.721 65.4702 205.74 65.6302C205.744 65.6867 205.74 65.7949 205.82 65.7949C205.932 65.7949 206.003 65.4231 206.408 65.4231C206.723 65.4231 206.93 65.6584 206.93 65.969C206.93 66.2843 206.662 66.5337 206.351 66.5337C206.045 66.5337 205.961 66.2655 205.838 66.2655C205.707 66.2655 205.73 66.5808 205.73 66.6655C205.73 66.8067 205.744 67.0043 205.768 67.1831C205.796 67.3902 206.154 67.2631 206.154 67.5455C206.154 67.842 205.74 67.8655 205.222 67.8655C205.005 67.8655 204.365 67.8749 204.365 67.5502C204.365 67.3525 204.582 67.3525 204.634 67.1878C204.671 67.0702 204.685 66.802 204.685 66.6702ZM209.13 67.6584L208.693 67.0984C208.674 67.0702 208.561 66.9102 208.514 66.9102C208.462 66.9102 208.467 67.0137 208.467 67.042C208.453 67.4608 208.66 67.3196 208.66 67.5408C208.66 67.6725 208.627 67.8655 207.893 67.8655C207.507 67.8655 207.069 67.8796 207.069 67.569C207.069 67.3431 207.318 67.5078 207.333 67.1125C207.347 66.7831 207.37 66.3361 207.37 66.129L207.37 65.4561C207.37 65.0749 207.008 65.329 207.008 65.0608C207.008 64.7455 208.071 64.5149 208.321 64.5149C208.448 64.5149 208.457 64.5902 208.453 64.6937L208.429 65.6914C208.42 65.9925 208.42 66.1102 208.533 66.1102C208.608 66.1102 208.909 65.9502 208.909 65.8796C208.909 65.8137 208.815 65.7761 208.815 65.682C208.815 65.4372 209.295 65.4231 209.46 65.4231C209.653 65.4231 210.166 65.4278 210.166 65.7196C210.166 65.9314 209.991 65.8325 209.709 66.0067C209.662 66.0302 209.478 66.1243 209.478 66.1808C209.478 66.2984 210.029 66.9761 210.118 67.0843C210.33 67.3478 210.589 67.3431 210.589 67.5408C210.589 67.6867 210.481 67.8137 210.118 67.8137L209.455 67.8137C209.267 67.8137 209.243 67.8043 209.13 67.6584Z" fill="#242424"/>
<path d="M19.9314 29.5808L19.9339 29.5343L19.9309 29.4879L19.196 18.1661L19.8357 8.3114C19.8624 7.89883 20.2049 7.57789 20.6183 7.57789L47.2052 7.57789C47.6186 7.57789 47.9611 7.89883 47.9879 8.3114L48.6275 18.1661L47.9 29.3739C47.8927 29.4877 47.8936 29.6019 47.9027 29.7155L48.9974 43.2852L48.6705 55.4421C48.6591 55.8669 48.3114 56.2053 47.8865 56.2053L19.9787 56.2053C19.5455 56.2053 19.1943 55.8542 19.1943 55.421L19.1943 43.2852L19.9314 29.5808Z" fill="#A11212" stroke="#C4C6C8" stroke-width="1.56863"/>
<path d="M44.1232 27.1076C44.1693 27.5693 43.8068 27.97 43.3427 27.97L24.8486 27.97C24.3846 27.97 24.022 27.5693 24.0682 27.1076L23.2877 27.0296L24.0682 27.1076L24.5387 22.4017C24.5788 22.0008 24.9162 21.6954 25.3192 21.6954L42.8721 21.6954C43.2751 21.6954 43.6125 22.0008 43.6526 22.4017L44.1232 27.1076Z" fill="#242424" stroke="#C4C6C8" stroke-width="1.56863"/>
<path d="M24.0686 43.7338C24.0224 43.2721 24.385 42.8715 24.849 42.8715L43.3431 42.8715C43.8071 42.8715 44.1697 43.2721 44.1236 43.7338L44.904 43.8119L44.1235 43.7338L43.653 48.4397C43.6129 48.8407 43.2755 49.146 42.8725 49.146L25.3196 49.146C24.9166 49.146 24.5792 48.8407 24.5391 48.4397L24.0686 43.7338Z" fill="#242424" stroke="#C4C6C8" stroke-width="1.56863"/>
<path d="M27.0377 10.7146L25.4691 18.5577" stroke="#C4C6C8" stroke-width="1.56863"/>
<path d="M52.0342 22.2823L49.6813 21.3411C49.1661 21.1351 48.6057 21.5145 48.6057 22.0693L48.6057 24.6411C48.6057 24.9874 48.8328 25.2928 49.1646 25.3923L51.5175 26.0982C52.0208 26.2491 52.5272 25.8723 52.5272 25.3469L52.5272 23.0105C52.5272 22.6898 52.332 22.4014 52.0342 22.2823Z" fill="#A11212" stroke="#C4C6C8" stroke-width="1.2549"/>
<path d="M15.7658 22.2823L18.1187 21.3411C18.6339 21.1351 19.1943 21.5145 19.1943 22.0693L19.1943 24.6411C19.1943 24.9874 18.9671 25.2928 18.6354 25.3923L16.2825 26.0982C15.7792 26.2491 15.2728 25.8723 15.2728 25.3469L15.2728 23.0105C15.2728 22.6898 15.468 22.4014 15.7658 22.2823Z" fill="#A11212" stroke="#C4C6C8" stroke-width="1.2549"/>
<path d="M20.7629 8.36194L48.2139 8.36194L48.2139 13.8521L20.7629 8.36194Z" fill="black" fill-opacity="0.4"/>
<path d="M24.6851 22.4792L44.2929 22.4792L44.2929 25.6165L24.6851 22.4792Z" fill="#464646" fill-opacity="0.4"/>
<path d="M24.6848 42.8717L43.5083 42.8717L43.5083 48.3619L24.6848 42.8717Z" fill="#464646" fill-opacity="0.4"/>
<path d="M41.1555 10.7148L42.7241 18.558" stroke="#C4C6C8" stroke-width="1.56863"/>
<path d="M129.783 43.282L129.783 43.282L129.783 43.2903L129.922 47.3363C130.058 51.3269 126.86 54.6361 122.867 54.6361L108.344 54.6361C104.267 54.6361 101.038 51.1917 101.3 47.1228L101.546 43.3141L101.548 43.2875L101.548 43.2609L101.502 29.7488C101.502 29.5926 101.497 29.4412 101.489 29.2876C101.426 28.0874 101.148 22.1403 101.544 18.2447C101.709 16.6108 102.065 14.6426 102.451 12.8001C103.096 9.71743 105.879 7.57728 109.08 7.57728L121.906 7.57728C125.097 7.57728 127.872 9.70388 128.516 12.7737C128.902 14.612 129.255 16.5841 129.417 18.2419C129.79 22.0487 129.546 27.787 129.477 29.1896C129.466 29.4135 129.462 29.6394 129.467 29.8673L129.783 43.282Z" fill="#1231A1" stroke="#C4C6C8" stroke-width="1.56863"/>
<path d="M125.52 25.3826C125.658 26.7678 124.571 27.9697 123.179 27.9697L108.151 27.9697C106.759 27.9697 105.671 26.7678 105.81 25.3826L105.967 23.814C106.087 22.6112 107.099 21.6952 108.308 21.6952L123.022 21.6952C124.231 21.6952 125.243 22.6112 125.363 23.814L125.52 25.3826Z" fill="#242424" stroke="#C4C6C8" stroke-width="1.56863"/>
<path d="M105.81 43.8902C105.671 42.505 106.759 41.3031 108.151 41.3031L123.179 41.3031C124.571 41.3031 125.658 42.505 125.52 43.8902L125.363 45.4588C125.243 46.6616 124.231 47.5776 123.022 47.5776L108.308 47.5776C107.099 47.5776 106.087 46.6616 105.967 45.4588L105.81 43.8902Z" fill="#242424" stroke="#C4C6C8" stroke-width="1.56863"/>
<path d="M108.606 10.7148L107.038 18.558" stroke="#C4C6C8" stroke-width="1.56863"/>
<path d="M133.604 22.2821L131.251 21.3409C130.735 21.1348 130.175 21.5142 130.175 22.0691L130.175 24.6408C130.175 24.9872 130.402 25.2925 130.734 25.3921L133.087 26.0979C133.59 26.2489 134.097 25.8721 134.097 25.3467L134.097 23.0103C134.097 22.6896 133.901 22.4012 133.604 22.2821Z" fill="#1231A1" stroke="#C4C6C8" stroke-width="1.2549"/>
<path d="M97.3342 22.2824L99.6871 21.3413C100.202 21.1352 100.763 21.5146 100.763 22.0695L100.763 24.6412C100.763 24.9875 100.536 25.2929 100.204 25.3924L97.8508 26.0983C97.3476 26.2493 96.8411 25.8724 96.8411 25.3471L96.8411 23.0106C96.8411 22.6899 97.0364 22.4015 97.3342 22.2824Z" fill="#1231A1" stroke="#C4C6C8" stroke-width="1.2549"/>
<path d="M105.012 7.90442L127.364 8.36187L129.325 14.5711C121.596 11.4096 119.232 8.85653 105.012 7.90442Z" fill="black" fill-opacity="0.4"/>
<path d="M106.253 22.4796L125.861 22.4796L125.861 25.6169L106.253 22.4796Z" fill="#464646" fill-opacity="0.4"/>
<path d="M106.253 41.3031L125.077 41.3031L125.077 46.7933L106.253 41.3031Z" fill="#464646" fill-opacity="0.4"/>
<path d="M122.724 10.7148L124.292 18.558" stroke="#C4C6C8" stroke-width="1.56863"/>
<path opacity="0.2" d="M214.681 36.5353C214.681 43.4624 209.059 50.3392 199.923 50.3392C190.687 50.3392 184.463 43.8639 184.463 35.3306C184.463 27.1486 192.946 16.1055 196.058 16.1055C197.112 15.9549 203.186 17.5612 203.186 19.0671C203.186 19.7196 202.282 20.6231 201.881 21.0749C200.024 23.1329 198.367 25.4922 198.367 27.0984C198.367 27.5502 198.668 28.0522 199.17 28.0522C200.024 28.0522 202.333 26.6969 205.093 26.6969C210.464 26.6969 214.681 31.2647 214.681 36.5353ZM203.638 41.0529C203.638 38.7439 202.082 33.9753 199.12 33.9753C197.363 33.9753 196.711 35.5314 196.711 37.0875C196.711 39.2459 198.869 43.362 201.279 43.362C202.684 43.362 203.638 42.4584 203.638 41.0529Z" fill="#F4F6F8"/>
</g>
<defs>
<clipPath id="clip0_349_389">
<rect width="484" height="88" fill="white" transform="translate(-247 0.5)"/>
</clipPath>
</defs>
</svg>
