<svg width="16" height="16" viewBox="0 0 16 16" fill="none" xmlns="http://www.w3.org/2000/svg">
<path d="M5.33464 2.66683H4.80143C4.0547 2.66683 3.68105 2.66683 3.39583 2.81215C3.14495 2.93999 2.94112 3.14381 2.81329 3.39469C2.66797 3.67991 2.66797 4.05356 2.66797 4.80029V5.3335M5.33464 2.66683H10.668M5.33464 2.66683V1.3335M10.668 2.66683H11.2014C11.9482 2.66683 12.321 2.66683 12.6062 2.81215C12.8571 2.93999 13.0616 3.14381 13.1895 3.39469C13.3346 3.67963 13.3346 4.05283 13.3346 4.7981V5.3335M10.668 2.66683V1.3335M2.66797 5.3335V11.2003C2.66797 11.947 2.66797 12.3202 2.81329 12.6054C2.94112 12.8563 3.14495 13.0605 3.39583 13.1883C3.68077 13.3335 4.05396 13.3335 4.79924 13.3335H11.2034C11.9486 13.3335 12.3213 13.3335 12.6062 13.1883C12.8571 13.0605 13.0616 12.8563 13.1895 12.6054C13.3346 12.3205 13.3346 11.9478 13.3346 11.2025V5.3335M2.66797 5.3335H13.3346M10.668 10.6668H10.6693L10.6693 10.6682L10.668 10.6681V10.6668ZM8.0013 10.6668H8.00264L8.0026 10.6682L8.0013 10.6681V10.6668ZM5.33464 10.6668H5.33597L5.33594 10.6682L5.33464 10.6681V10.6668ZM10.6693 8.00016V8.0015L10.668 8.00147V8.00016H10.6693ZM8.0013 8.00016H8.00264L8.0026 8.0015L8.0013 8.00147V8.00016ZM5.33464 8.00016H5.33597L5.33594 8.0015L5.33464 8.00147V8.00016Z" stroke="#444648" stroke-width="1.2" stroke-linecap="round" stroke-linejoin="round"/>
</svg>
