<svg xmlns="http://www.w3.org/2000/svg" width="20" height="20" fill="none" xmlns:v="https://vecta.io/nano"><path d="M3.333 16.667h13.333m-13.333 0v-3.333L10 6.667m-6.667 10h3.333L13.333 10M10 6.667l2.39-2.391.002-.001c.329-.329.494-.494.684-.556.167-.054.348-.054.515 0 .19.062.354.226.683.555l1.45 1.45c.33.33.495.495.557.685.054.167.054.348 0 .515-.062.19-.227.355-.556.685l-.001.001L13.333 10M10 6.667L13.333 10" stroke="#242628" stroke-width="1.22" stroke-linecap="round" stroke-linejoin="round"/></svg>