<svg width="16" height="17" viewBox="0 0 16 17" fill="none" xmlns="http://www.w3.org/2000/svg">
<path opacity="0.4" d="M10.3866 8.49995C10.3866 9.81995 9.31995 10.8866 7.99995 10.8866C6.67995 10.8866 5.61328 9.81995 5.61328 8.49995C5.61328 7.17995 6.67995 6.11328 7.99995 6.11328C9.31995 6.11328 10.3866 7.17995 10.3866 8.49995Z" stroke="#090C02" stroke-linecap="round" stroke-linejoin="round"/>
<path d="M7.9999 14.0128C10.3532 14.0128 12.5466 12.6262 14.0732 10.2262C14.6732 9.28616 14.6732 7.70616 14.0732 6.76616C12.5466 4.36616 10.3532 2.97949 7.9999 2.97949C5.64656 2.97949 3.45323 4.36616 1.92656 6.76616C1.32656 7.70616 1.32656 9.28616 1.92656 10.2262C3.45323 12.6262 5.64656 14.0128 7.9999 14.0128Z" stroke="#090C02" stroke-linecap="round" stroke-linejoin="round"/>
</svg>
