<svg width="24" height="25" viewBox="0 0 24 25" fill="none" xmlns="http://www.w3.org/2000/svg">
<path d="M12.02 3.31006C8.71003 3.31006 6.02003 6.00006 6.02003 9.31006V12.2001C6.02003 12.8101 5.76003 13.7401 5.45003 14.2601L4.30003 16.1701C3.59003 17.3501 4.08003 18.6601 5.38003 19.1001C9.69003 20.5401 14.34 20.5401 18.65 19.1001C19.86 18.7001 20.39 17.2701 19.73 16.1701L18.58 14.2601C18.28 13.7401 18.02 12.8101 18.02 12.2001V9.31006C18.02 6.01006 15.32 3.31006 12.02 3.31006Z" stroke="#086375" stroke-width="1.5" stroke-miterlimit="10" stroke-linecap="round"/>
<path d="M13.87 3.60009C13.56 3.51009 13.24 3.44009 12.91 3.40009C11.95 3.28009 11.03 3.35009 10.17 3.60009C10.46 2.86009 11.18 2.34009 12.02 2.34009C12.86 2.34009 13.58 2.86009 13.87 3.60009Z" stroke="#086375" stroke-width="1.5" stroke-miterlimit="10" stroke-linecap="round" stroke-linejoin="round"/>
<path opacity="0.4" d="M15.02 19.4602C15.02 21.1102 13.67 22.4602 12.02 22.4602C11.2 22.4602 10.44 22.1202 9.90002 21.5802C9.36002 21.0402 9.02002 20.2802 9.02002 19.4602" stroke="#086375" stroke-width="1.5" stroke-miterlimit="10"/>
</svg>
