<svg width="25" height="25" viewBox="0 0 25 25" fill="none" xmlns="http://www.w3.org/2000/svg">
<path fill-rule="evenodd" clip-rule="evenodd" d="M0.5 12.5C0.5 9.3174 1.76428 6.26516 4.01472 4.01472C6.26516 1.76428 9.3174 0.5 12.5 0.5C15.6826 0.5 18.7348 1.76428 20.9853 4.01472C23.2357 6.26516 24.5 9.3174 24.5 12.5C24.5 15.6826 23.2357 18.7348 20.9853 20.9853C18.7348 23.2357 15.6826 24.5 12.5 24.5C9.3174 24.5 6.26516 23.2357 4.01472 20.9853C1.76428 18.7348 0.5 15.6826 0.5 12.5ZM11.8152 17.636L18.724 8.9992L17.476 8.0008L11.5848 15.3624L7.412 11.8856L6.388 13.1144L11.8152 17.6376V17.636Z" fill="#26A17B"/>
</svg>
