<svg width="17" height="16" viewBox="0 0 17 16" fill="none" xmlns="http://www.w3.org/2000/svg">
<path d="M3.79688 6.61523C3.79688 9.84978 6.62652 12.5246 7.879 13.5501C8.05825 13.6969 8.14895 13.7712 8.28268 13.8088C8.38681 13.8381 8.54007 13.8381 8.64421 13.8088C8.77819 13.7711 8.86825 13.6976 9.04818 13.5502C10.3007 12.5247 13.1302 9.85008 13.1302 6.61553C13.1302 5.39145 12.6385 4.21737 11.7633 3.35181C10.8882 2.48626 9.70127 2 8.4636 2C7.22592 2 6.03888 2.48634 5.16371 3.35189C4.28854 4.21744 3.79688 5.39116 3.79688 6.61523Z" stroke="#444648" stroke-width="1.2" stroke-linecap="round" stroke-linejoin="round"/>
<path d="M7.13021 6C7.13021 6.73638 7.72716 7.33333 8.46354 7.33333C9.19992 7.33333 9.79687 6.73638 9.79687 6C9.79687 5.26362 9.19992 4.66667 8.46354 4.66667C7.72716 4.66667 7.13021 5.26362 7.13021 6Z" stroke="#444648" stroke-width="1.2" stroke-linecap="round" stroke-linejoin="round"/>
</svg>
