<svg width="33" height="33" viewBox="0 0 33 33" fill="none" xmlns="http://www.w3.org/2000/svg">
<path d="M16.5 2.5C13.5836 2.50331 10.7877 3.6633 8.72548 5.72548C6.6633 7.78766 5.50331 10.5836 5.5 13.5C5.5 22.9125 15.5 30.0212 15.9263 30.3188C16.0944 30.4365 16.2947 30.4997 16.5 30.4997C16.7053 30.4997 16.9056 30.4365 17.0737 30.3188C17.5 30.0212 27.5 22.9125 27.5 13.5C27.4967 10.5836 26.3367 7.78766 24.2745 5.72548C22.2123 3.6633 19.4164 2.50331 16.5 2.5ZM16.5 9.5C17.2911 9.5 18.0645 9.7346 18.7223 10.1741C19.3801 10.6136 19.8928 11.2384 20.1955 11.9693C20.4983 12.7002 20.5775 13.5044 20.4231 14.2804C20.2688 15.0563 19.8878 15.769 19.3284 16.3284C18.769 16.8878 18.0563 17.2688 17.2804 17.4231C16.5044 17.5775 15.7002 17.4983 14.9693 17.1955C14.2384 16.8928 13.6136 16.3801 13.1741 15.7223C12.7346 15.0645 12.5 14.2911 12.5 13.5C12.5 12.4391 12.9214 11.4217 13.6716 10.6716C14.4217 9.92143 15.4391 9.5 16.5 9.5Z" fill="white"/>
</svg>
