<svg xmlns="http://www.w3.org/2000/svg" width="30" height="24" viewBox="0 0 30 24" fill="none">
<g clip-path="url(#clip0_1606_6379)">
<path d="M5.4546 23.2028V21.6594C5.4546 21.0677 5.09439 20.6819 4.47698 20.6819C4.16833 20.6819 3.8339 20.7848 3.60236 21.1192C3.42237 20.8362 3.16516 20.6819 2.77929 20.6819C2.52197 20.6819 2.26488 20.759 2.05899 21.042V20.7334H1.5188V23.2028H2.05899V21.8394C2.05899 21.4022 2.29054 21.1963 2.65075 21.1963C3.01072 21.1963 3.19094 21.4279 3.19094 21.8394V23.2028H3.73113V21.8394C3.73113 21.4022 3.98822 21.1963 4.32265 21.1963C4.68286 21.1963 4.86285 21.4279 4.86285 21.8394V23.2028H5.4546ZM13.4545 20.7334H12.58V19.9874H12.0398V20.7334H11.5511V21.222H12.0397V22.3539C12.0397 22.9199 12.2712 23.2542 12.8887 23.2542C13.1202 23.2542 13.3773 23.1771 13.5575 23.0742L13.4031 22.6112C13.2487 22.714 13.0688 22.7398 12.9401 22.7398C12.6829 22.7398 12.58 22.5855 12.58 22.3282V21.222H13.4545V20.7334ZM18.0334 20.6818C17.7247 20.6818 17.519 20.8362 17.3903 21.042V20.7334H16.8501V23.2028H17.3903V21.8138C17.3903 21.4022 17.5703 21.1707 17.9047 21.1707C18.0076 21.1707 18.1363 21.1965 18.2392 21.2221L18.3935 20.7077C18.2906 20.6819 18.1363 20.6819 18.0334 20.6819V20.6818ZM11.1137 20.9391C10.8564 20.759 10.4963 20.6819 10.1105 20.6819C9.49317 20.6819 9.08163 20.9906 9.08163 21.4793C9.08163 21.891 9.39028 22.1224 9.93048 22.1996L10.1877 22.2254C10.4707 22.2767 10.625 22.3539 10.625 22.4826C10.625 22.6626 10.4192 22.7913 10.059 22.7913C9.69893 22.7913 9.41595 22.6626 9.23584 22.5341L8.97863 22.9456C9.26162 23.1513 9.64749 23.2542 10.0332 23.2542C10.7535 23.2542 11.1652 22.9199 11.1652 22.4568C11.1652 22.0195 10.8308 21.788 10.3162 21.7109L10.059 21.6851C9.82748 21.6593 9.64749 21.608 9.64749 21.4537C9.64749 21.2736 9.82748 21.1707 10.1105 21.1707C10.4192 21.1707 10.7279 21.2992 10.8822 21.3764L11.1137 20.9391ZM25.4676 20.6819C25.1588 20.6819 24.953 20.8362 24.8244 21.042V20.7334H24.2842V23.2028H24.8244V21.8138C24.8244 21.4022 25.0045 21.1707 25.3388 21.1707C25.4418 21.1707 25.5704 21.1965 25.6733 21.2221L25.8277 20.7077C25.7248 20.6819 25.5704 20.6819 25.4676 20.6819ZM18.5736 21.9681C18.5736 22.714 19.088 23.2542 19.8855 23.2542C20.2456 23.2542 20.5028 23.1771 20.76 22.9714L20.5028 22.5341C20.2971 22.6884 20.0913 22.7655 19.8597 22.7655C19.4224 22.7655 19.1138 22.4568 19.1138 21.9681C19.1138 21.5051 19.4224 21.1963 19.8597 21.1707C20.0913 21.1707 20.2971 21.2478 20.5028 21.4022L20.76 20.9649C20.5028 20.759 20.2456 20.6819 19.8855 20.6819C19.088 20.6819 18.5736 21.2221 18.5736 21.9681ZM23.564 21.9681V20.7334H23.0238V21.042C22.8437 20.8106 22.5865 20.6819 22.2521 20.6819C21.5575 20.6819 21.0174 21.2221 21.0174 21.9681C21.0174 22.714 21.5575 23.2542 22.2521 23.2542C22.6122 23.2542 22.8695 23.1257 23.0238 22.8941V23.2028H23.564V21.9681ZM21.5832 21.9681C21.5832 21.5308 21.8662 21.1707 22.3292 21.1707C22.7665 21.1707 23.0752 21.5051 23.0752 21.9681C23.0752 22.4054 22.7665 22.7655 22.3292 22.7655C21.8662 22.7397 21.5832 22.4054 21.5832 21.9681ZM15.1267 20.6819C14.4064 20.6819 13.8918 21.1963 13.8918 21.9681C13.8918 22.7398 14.4062 23.2542 15.1523 23.2542C15.5124 23.2542 15.8726 23.1513 16.1556 22.9199L15.8983 22.5341C15.6925 22.6884 15.4353 22.7913 15.1781 22.7913C14.8437 22.7913 14.5092 22.6369 14.432 22.1995H16.2585V21.9939C16.2843 21.1963 15.8213 20.6819 15.1267 20.6819ZM15.1267 21.1449C15.461 21.1449 15.6926 21.3508 15.744 21.7366H14.4578C14.5092 21.4022 14.7408 21.1449 15.1267 21.1449ZM28.5286 21.9681V19.7559H27.9884V21.042C27.8083 20.8106 27.5511 20.6819 27.2167 20.6819C26.5222 20.6819 25.982 21.2221 25.982 21.9681C25.982 22.714 26.5222 23.2542 27.2167 23.2542C27.5769 23.2542 27.8341 23.1257 27.9884 22.8941V23.2028H28.5286V21.9681ZM26.548 21.9681C26.548 21.5308 26.8308 21.1707 27.2939 21.1707C27.7312 21.1707 28.0399 21.5051 28.0399 21.9681C28.0399 22.4054 27.7312 22.7655 27.2939 22.7655C26.8308 22.7397 26.548 22.4054 26.548 21.9681ZM8.48988 21.9681V20.7334H7.94969V21.042C7.76958 20.8106 7.51238 20.6819 7.17795 20.6819C6.48343 20.6819 5.94324 21.2221 5.94324 21.9681C5.94324 22.714 6.48343 23.2542 7.17795 23.2542C7.53816 23.2542 7.79536 23.1257 7.94969 22.8941V23.2028H8.48988V21.9681ZM6.48343 21.9681C6.48343 21.5308 6.76642 21.1707 7.22939 21.1707C7.6667 21.1707 7.97547 21.5051 7.97547 21.9681C7.97547 22.4054 7.6667 22.7655 7.22939 22.7655C6.76642 22.7397 6.48343 22.4054 6.48343 21.9681Z" fill="black"/>
<path d="M10.9337 1.98047H19.0366V16.5401H10.9337V1.98047Z" fill="#FF5F00"/>
<path d="M11.4482 9.26052C11.4482 6.30234 12.8372 3.67848 14.9722 1.98067C13.4032 0.74596 11.4225 0 9.26174 0C4.14255 0 0.00109863 4.14145 0.00109863 9.26052C0.00109863 14.3795 4.14255 18.521 9.26162 18.521C11.4224 18.521 13.4031 17.7751 14.9722 16.5403C12.8372 14.8682 11.4482 12.2187 11.4482 9.26052Z" fill="#EB001B"/>
<path d="M29.9692 9.26052C29.9692 14.3795 25.8277 18.521 20.7086 18.521C18.5479 18.521 16.5672 17.7751 14.998 16.5403C17.1588 14.8426 18.5222 12.2187 18.5222 9.26052C18.5222 6.30234 17.133 3.67848 14.998 1.98067C16.5671 0.74596 18.5479 0 20.7086 0C25.8277 0 29.9692 4.16723 29.9692 9.26052Z" fill="#F79E1B"/>
</g>
<defs>
<clipPath id="clip0_1606_6379">
<rect width="30" height="23.3186" fill="white"/>
</clipPath>
</defs>
</svg>