<svg
    width="64"
    height="64"
    viewBox="0 0 16 17"
    fill="none"
    xmlns="http://www.w3.org/2000/svg"
  >
    <path
      d="M1.76576 7.34958L2.26291 7.29629C2.24181 7.09942 2.22852 6.90963 2.22852 6.71675C2.22852 3.32988 5.17676 0.523438 8.86435 0.523438C12.5519 0.523438 15.5002 3.32988 15.5002 6.71675C15.5002 8.58037 14.6388 10.2977 13.103 11.4802C12.9626 11.5882 12.8899 11.7626 12.9119 11.9384L13.1647 13.9599C13.1648 13.9605 13.1649 13.961 13.1649 13.9615C13.2017 14.2788 13.0646 14.5686 12.8016 14.7397C12.6709 14.8234 12.5188 14.8682 12.3727 14.8682C12.2286 14.8682 12.0882 14.8314 11.9617 14.7546L11.9617 14.7546L11.9574 14.752L8.97049 12.98C8.89675 12.9363 8.813 12.9122 8.72728 12.9102C8.42942 12.9031 8.13814 12.882 7.86588 12.8412L7.86498 12.841C7.83944 12.8372 7.8202 12.8214 7.81146 12.7987C7.80629 12.7852 7.80662 12.7765 7.80755 12.7712C7.80851 12.7657 7.81137 12.7568 7.82121 12.7453C8.38916 12.083 8.68652 11.2831 8.68652 10.4319C8.68652 8.31756 6.83815 6.66345 4.6484 6.66345C3.82861 6.66345 3.03356 6.88888 2.35968 7.33087C2.34804 7.33791 2.33754 7.34066 2.32862 7.34128C2.32026 7.34187 2.31014 7.34081 2.29816 7.33597C2.28727 7.3301 2.27811 7.32199 2.27177 7.31342C2.26514 7.30448 2.26304 7.29721 2.26246 7.29224L1.76576 7.34958ZM1.76576 7.34958C1.78811 7.54316 1.91473 7.70698 2.08605 7.78887L13.0729 15.1597C13.4974 14.8843 13.7209 14.4078 13.6613 13.9015L13.408 11.8763C15.0616 10.6032 16.0002 8.74187 16.0002 6.71675C16.0002 3.02388 12.7973 0.0234375 8.86435 0.0234375C4.93145 0.0234375 1.72852 3.02388 1.72852 6.71675C1.72852 6.93266 1.74342 7.14111 1.76576 7.34958ZM8.40972 12.0621C8.32935 12.2228 8.34136 12.4143 8.44118 12.5636C8.53864 12.7095 8.70518 12.7933 8.87979 12.7853C8.88626 12.7896 8.89284 12.7937 8.8995 12.7976L12.0157 14.6486C12.1401 14.7256 12.2826 14.7631 12.4293 14.7505C12.5657 14.7388 12.6709 14.687 12.7393 14.6426C12.8905 14.5464 13.0944 14.3192 13.0472 13.9706L12.7579 11.6271C12.7553 11.5957 12.7687 11.572 12.7842 11.5598C14.4259 10.4071 15.3829 8.63695 15.3829 6.70184C15.3829 3.31575 12.4262 0.625327 8.86435 0.625327C5.43599 0.625327 2.5674 3.12316 2.35436 6.33374C2.34305 6.50411 2.41947 6.66847 2.55703 6.76964C2.69458 6.8708 2.87425 6.89478 3.03351 6.83322C3.53678 6.63871 4.07913 6.5318 4.64095 6.5318C6.96312 6.5318 8.79638 8.30114 8.79638 10.417H8.79634L8.79641 10.4227C8.8029 10.9932 8.667 11.5478 8.40972 12.0621ZM12.5442 13.7997L12.5378 13.7958C12.54 13.7971 12.5421 13.7984 12.5442 13.7997Z"
      stroke="#848688"
    />
    <path
      d="M2.19481 15.4405L2.19252 15.4391C2.01607 15.3254 1.92732 15.1382 1.94895 14.9363L2.09731 13.7944C2.11962 13.6227 2.05149 13.4517 1.91722 13.3423C1.02309 12.6141 0.5 11.5406 0.5 10.4243C0.5 9.15084 1.16608 7.95143 2.30217 7.22759L2.30218 7.22761L2.30605 7.22509C2.99033 6.78018 3.80401 6.53906 4.65543 6.53906C6.97759 6.53906 8.81085 8.3084 8.81085 10.4243C8.81085 11.2863 8.49696 12.1394 7.91775 12.817L7.9177 12.8169L7.91218 12.8236C7.16773 13.7258 6.04712 14.2621 4.79574 14.3024C4.71138 14.3051 4.62907 14.3292 4.5565 14.3723L2.74009 15.4512C2.73994 15.4513 2.73978 15.4514 2.73962 15.4515C2.65697 15.5002 2.56695 15.5232 2.47297 15.5232C2.37341 15.5232 2.28255 15.4977 2.19481 15.4405ZM2.84 15.247L4.61797 14.1911C4.63678 14.1803 4.64742 14.1782 4.6494 14.1779C5.88087 14.1775 7.06048 13.6511 7.81766 12.7326C8.37958 12.0677 8.6861 11.2707 8.6861 10.4169C8.6861 8.3092 6.83695 6.65586 4.64798 6.65586C3.82735 6.65586 3.0315 6.8817 2.35715 7.32461C1.2716 8.02089 0.609857 9.17133 0.609857 10.4243C0.609857 11.6299 1.20243 12.7264 2.2256 13.4264C2.23527 13.4333 2.24172 13.4416 2.24592 13.451C2.25005 13.4602 2.25283 13.4724 2.25169 13.4876L2.08878 14.7532C2.06437 14.9429 2.15027 15.1299 2.31007 15.2349C2.46987 15.3399 2.67558 15.3446 2.84 15.247Z"
      stroke="#848688"
    />
    <path d="M6 5.02344H12" stroke="#848688" />
    <path d="M8 8.02344L12 8.02344" stroke="#848688" />
    <path d="M3 9.52344H6" stroke="#848688" />
    <path d="M4 11.5234L6 11.5234" stroke="#848688" />
  </svg>