<svg width="191" height="27" viewBox="0 0 191 27" fill="none" xmlns="http://www.w3.org/2000/svg">
<path d="M13.438 7.504C13.438 5.74 12.542 4.284 10.666 4.284C9.57402 4.284 9.60202 4.62 9.60202 5.18V9.38C9.60202 9.968 9.35002 10.612 10.862 10.612C12.71 10.612 13.438 9.212 13.438 7.504ZM3.16202 16.576V5.628C3.16202 3.528 0.558016 4.452 0.558016 2.688C0.558016 1.568 1.79002 1.316 2.65802 1.316C3.35802 1.316 4.03002 1.372 4.73002 1.372C8.79002 1.372 11.254 0.979999 12.43 0.979999C16.238 0.979999 19.906 3.192 19.906 7.392C19.906 11.564 16.378 13.804 12.486 13.804C11.646 13.804 10.806 13.664 10.05 13.664C9.71402 13.664 9.60202 13.804 9.60202 14.112V15.736C9.68602 19.236 11.73 17.78 11.73 19.404C11.73 21.224 7.69802 21.308 6.43802 21.308C5.26202 21.308 1.11802 21.28 1.11802 19.46C1.11802 17.92 3.16202 18.872 3.16202 16.576ZM28.103 14.98C27.151 14.98 26.507 15.876 26.507 16.772C26.507 17.5 26.899 18.284 27.711 18.284C28.775 18.284 28.859 17.136 28.859 16.296C28.859 15.68 28.887 14.98 28.103 14.98ZM34.907 11.508V14.308C34.907 19.236 36.587 16.548 36.587 18.06C36.587 19.656 34.403 21.392 32.359 21.392C30.147 21.392 30.091 19.964 29.391 19.964C29.055 19.964 28.691 20.328 28.075 20.664C27.459 21.028 26.619 21.392 25.331 21.392C23.007 21.392 20.683 20.16 20.683 17.388C20.683 15.4 22.587 12.936 27.515 12.936C28.383 12.936 28.775 12.992 28.775 11.984C28.775 11.06 28.747 9.128 27.459 9.128C25.779 9.128 25.611 12.152 23.119 12.152C22.223 12.152 21.551 11.508 21.551 10.612C21.551 8.232 26.283 6.692 28.943 6.692C30.539 6.692 34.907 7.308 34.907 11.508ZM39.1547 14.196V12.516C39.1547 9.772 37.4187 11.312 37.4187 9.604C37.4187 7.392 43.9707 6.776 44.2227 6.776C45.2867 6.776 45.3147 7.056 45.4267 8.008C45.4547 8.344 45.4267 8.988 45.9027 8.988C46.5747 8.988 46.9947 6.776 49.4027 6.776C51.2787 6.776 52.5107 8.176 52.5107 10.024C52.5107 11.9 50.9147 13.384 49.0667 13.384C47.2467 13.384 46.7427 11.788 46.0147 11.788C45.2307 11.788 45.3707 13.664 45.3707 14.168C45.3707 15.008 45.4547 16.184 45.5947 17.248C45.7627 18.48 47.8907 17.724 47.8907 19.404C47.8907 21.168 45.4267 21.308 42.3467 21.308C41.0587 21.308 37.2507 21.364 37.2507 19.432C37.2507 18.256 38.5387 18.256 38.8467 17.276C39.0707 16.576 39.1547 14.98 39.1547 14.196ZM65.6014 20.076L62.9974 16.744C62.8854 16.576 62.2134 15.624 61.9334 15.624C61.6254 15.624 61.6534 16.24 61.6534 16.408C61.5694 18.9 62.8014 18.06 62.8014 19.376C62.8014 20.16 62.6054 21.308 58.2374 21.308C55.9414 21.308 53.3374 21.392 53.3374 19.544C53.3374 18.2 54.8214 19.18 54.9054 16.828C54.9894 14.868 55.1294 12.208 55.1294 10.976V6.972C55.1294 4.704 52.9734 6.216 52.9734 4.62C52.9734 2.744 59.3014 1.372 60.7854 1.372C61.5414 1.372 61.5974 1.82 61.5694 2.436L61.4294 8.372C61.3734 10.164 61.3734 10.864 62.0454 10.864C62.4934 10.864 64.2854 9.912 64.2854 9.492C64.2854 9.1 63.7254 8.876 63.7254 8.316C63.7254 6.86 66.5814 6.776 67.5614 6.776C68.7094 6.776 71.7614 6.804 71.7614 8.54C71.7614 9.8 70.7254 9.212 69.0454 10.248C68.7654 10.388 67.6734 10.948 67.6734 11.284C67.6734 11.984 70.9494 16.016 71.4814 16.66C72.7414 18.228 74.2814 18.2 74.2814 19.376C74.2814 20.244 73.6374 21 71.4814 21H67.5334C66.4134 21 66.2734 20.944 65.6014 20.076ZM82.8349 8.008V15.82C82.8349 19.124 84.4869 17.92 84.4869 19.404C84.4869 21.308 80.9309 21.308 79.6709 21.308C74.8549 21.308 74.6589 20.216 74.6589 19.544C74.6589 18.536 75.8069 18.48 76.1429 17.612C76.5069 16.632 76.5629 12.572 76.2549 11.536C76.0029 10.556 74.5749 10.864 74.5749 9.604C74.5749 7.616 81.6869 6.776 81.9669 6.776C82.8069 6.776 82.8349 7.42 82.8349 8.008ZM82.6949 3.136C82.6949 5.32 78.8869 5.88 77.2909 5.88C76.1149 5.88 74.8549 5.348 74.8549 3.976C74.8549 2.128 78.5509 1.372 79.9789 1.372C81.0989 1.372 82.6949 1.736 82.6949 3.136ZM93.1389 14.168V16.324C93.1389 19.04 94.0909 18.564 94.0909 19.628C94.0909 21.364 90.3669 21.308 89.2189 21.308C88.0989 21.308 85.2429 21.308 85.2429 19.628C85.2429 18.284 86.5309 19.488 86.6149 16.744L86.7269 12.544C86.7829 10.472 85.0749 11.144 85.0749 9.66C85.0749 8.176 91.5149 6.776 92.0749 6.776C92.6909 6.776 93.0829 7.308 93.0829 7.868C93.0829 8.036 93.0549 8.204 93.0549 8.372C93.0549 8.708 93.1949 9.1 93.6149 9.1C94.0629 9.1 94.3149 8.512 94.8749 7.924C95.4349 7.364 96.2749 6.776 97.8709 6.776C103.667 6.776 102.687 12.46 102.967 16.716C103.107 18.928 104.255 18.424 104.255 19.628C104.255 20.132 104.367 21.308 99.1029 21.308C98.0949 21.308 95.4069 21.364 95.4069 19.796C95.4069 18.788 96.3309 19.264 96.4709 17.444C96.6109 15.456 97.3949 10.976 94.7629 10.976C92.9709 10.976 93.1389 12.908 93.1389 14.168Z" fill="#EE383A"/>
<path d="M108.317 12.46C106.777 11.228 105.657 9.52 105.657 7.504C105.657 4.592 108.457 0.979999 113.889 0.979999C115.681 0.979999 117.697 1.764 118.117 1.764C118.509 1.764 118.901 1.372 119.489 1.372C120.441 1.372 122.569 3.528 122.569 5.88C122.569 6.832 121.953 7.784 120.917 7.784C119.041 7.784 117.949 4.592 115.037 4.592C114.169 4.592 113.245 4.984 113.245 5.992C113.245 8.204 117.081 7.616 120.329 9.772C122.065 10.92 122.933 12.32 122.933 14.42C122.933 17.696 120.245 21.392 113.721 21.392C111.873 21.392 108.709 20.916 107.113 20.048C105.769 19.292 105.125 16.324 105.125 14.896C105.125 14.14 105.461 13.384 106.301 13.384C108.289 13.384 107.953 17.836 113.105 17.836C113.721 17.836 115.261 17.528 115.261 16.464C115.261 14.448 111.425 14.952 108.317 12.46ZM135.694 14.392C135.694 13.048 135.414 10.836 133.65 10.836C132.642 10.836 132.306 11.256 132.306 16.352C132.306 17.276 132.754 17.612 133.734 17.612C135.47 17.612 135.694 15.736 135.694 14.392ZM125.978 16.996V15.456C125.978 12.516 125.81 11.872 125.67 11.732C125.306 11.368 123.794 11.732 123.794 10.136C123.794 8.232 129.562 6.776 131.634 6.776C132.306 6.776 132.418 7 132.418 7.616C132.418 7.812 132.446 8.204 132.726 8.204C133.118 8.204 134.686 6.692 136.982 6.692C140.65 6.692 142.61 10.36 142.61 13.636C142.61 17.388 139.95 21.392 135.862 21.392C134.546 21.392 133.23 20.692 132.978 20.692C132.586 20.692 132.53 21.28 132.53 21.588C132.53 23.716 134.266 23.044 134.266 24.416C134.266 25.984 131.718 26.18 130.626 26.18C126.874 26.18 123.934 24.808 123.934 23.38C123.934 22.12 125.082 22.596 125.586 21.504C125.866 20.916 125.978 20.104 125.978 16.996ZM150.904 14.98C149.952 14.98 149.308 15.876 149.308 16.772C149.308 17.5 149.7 18.284 150.512 18.284C151.576 18.284 151.66 17.136 151.66 16.296C151.66 15.68 151.688 14.98 150.904 14.98ZM157.708 11.508V14.308C157.708 19.236 159.388 16.548 159.388 18.06C159.388 19.656 157.204 21.392 155.16 21.392C152.948 21.392 152.892 19.964 152.192 19.964C151.856 19.964 151.492 20.328 150.876 20.664C150.26 21.028 149.42 21.392 148.132 21.392C145.808 21.392 143.484 20.16 143.484 17.388C143.484 15.4 145.388 12.936 150.316 12.936C151.184 12.936 151.576 12.992 151.576 11.984C151.576 11.06 151.548 9.128 150.26 9.128C148.58 9.128 148.412 12.152 145.92 12.152C145.024 12.152 144.352 11.508 144.352 10.612C144.352 8.232 149.084 6.692 151.744 6.692C153.34 6.692 157.708 7.308 157.708 11.508ZM160.247 14C160.247 9.968 163.747 6.692 168.451 6.692C172.651 6.692 174.863 9.016 174.863 10.976C174.863 12.544 173.687 13.748 172.119 13.748C169.095 13.748 170.495 10.276 168.283 10.276C167.051 10.276 166.379 11.536 166.379 12.656C166.379 14.728 167.919 16.828 170.131 16.828C171.895 16.828 172.483 16.1 173.071 16.1C173.827 16.1 174.331 16.94 174.331 17.612C174.331 19.264 171.811 21.392 167.891 21.392C163.663 21.392 160.247 18.284 160.247 14ZM188.716 14.56H182.64C182.332 14.56 181.884 14.476 181.884 14.952C181.884 16.352 183.704 17.528 185.02 17.528C187.12 17.528 188.156 16.268 188.744 16.268C189.332 16.268 189.836 17.136 189.836 17.668C189.836 19.824 185.888 21.392 183.368 21.392C178.328 21.392 175.724 17.752 175.724 14.14C175.724 9.828 179.392 6.692 183.592 6.692C188.352 6.692 190.452 10.36 190.452 12.46C190.452 14.308 189.612 14.56 188.716 14.56ZM183.424 11.872C184.18 11.872 185.076 12.04 185.076 11.032C185.076 10.024 184.46 9.24 183.424 9.24C182.5 9.24 181.744 10.192 181.744 11.088C181.744 12.096 182.696 11.872 183.424 11.872Z" fill="white"/>
</svg>
