<svg width="17" height="16" viewBox="0 0 17 16" fill="none" xmlns="http://www.w3.org/2000/svg">
<path d="M5.79557 2.66634H5.26237C4.51563 2.66634 4.14199 2.66634 3.85677 2.81167C3.60589 2.9395 3.40206 3.14332 3.27423 3.39421C3.12891 3.67942 3.12891 4.05307 3.12891 4.7998V5.33301M5.79557 2.66634H11.1289M5.79557 2.66634V1.33301M11.1289 2.66634H11.6624C12.4091 2.66634 12.782 2.66634 13.0672 2.81167C13.3181 2.9395 13.5226 3.14332 13.6504 3.39421C13.7956 3.67914 13.7956 4.05234 13.7956 4.79761V5.33301M11.1289 2.66634V1.33301M3.12891 5.33301V11.1998C3.12891 11.9465 3.12891 12.3197 3.27423 12.6049C3.40206 12.8558 3.60589 13.06 3.85677 13.1878C4.14171 13.333 4.5149 13.333 5.26018 13.333H11.6643C12.4096 13.333 12.7822 13.333 13.0672 13.1878C13.3181 13.06 13.5226 12.8558 13.6504 12.6049C13.7956 12.32 13.7956 11.9473 13.7956 11.2021V5.33301M3.12891 5.33301H13.7956M11.1289 10.6663H11.1302L11.1302 10.6677L11.1289 10.6676V10.6663ZM8.46224 10.6663H8.46357L8.46354 10.6677L8.46224 10.6676V10.6663ZM5.79557 10.6663H5.79691L5.79687 10.6677L5.79557 10.6676V10.6663ZM11.1302 7.99967V8.00101L11.1289 8.00098V7.99967H11.1302ZM8.46224 7.99967H8.46357L8.46354 8.00101L8.46224 8.00098V7.99967ZM5.79557 7.99967H5.79691L5.79687 8.00101L5.79557 8.00098V7.99967Z" stroke="#444648" stroke-width="1.2" stroke-linecap="round" stroke-linejoin="round"/>
</svg>
