<svg width="17" height="16" viewBox="0 0 17 16" fill="none" xmlns="http://www.w3.org/2000/svg">
<path d="M11.7962 13.333C11.7962 12.2284 10.3038 11.333 8.46289 11.333C6.62194 11.333 5.12956 12.2284 5.12956 13.333M14.4629 11.3333C14.4629 10.5131 13.6402 9.8083 12.4629 9.49967M2.46289 11.3333C2.46289 10.5131 3.28562 9.8083 4.46289 9.49967M12.4629 6.82375C12.8721 6.45753 13.1296 5.92534 13.1296 5.33301C13.1296 4.22844 12.2341 3.33301 11.1296 3.33301C10.6173 3.33301 10.1501 3.52558 9.79622 3.84227M4.46289 6.82375C4.05372 6.45753 3.79622 5.92534 3.79622 5.33301C3.79622 4.22844 4.69165 3.33301 5.79622 3.33301C6.30846 3.33301 6.77572 3.52558 7.12956 3.84227M8.46289 9.33301C7.35832 9.33301 6.46289 8.43758 6.46289 7.33301C6.46289 6.22844 7.35832 5.33301 8.46289 5.33301C9.56746 5.33301 10.4629 6.22844 10.4629 7.33301C10.4629 8.43758 9.56746 9.33301 8.46289 9.33301Z" stroke="#444648" stroke-width="1.2" stroke-linecap="round" stroke-linejoin="round"/>
</svg>
