<svg width="16" height="16" viewBox="0 0 16 16" fill="none" xmlns="http://www.w3.org/2000/svg">
<path d="M6.33301 2H9.66634C9.93156 2 10.1859 2.10536 10.3734 2.29289C10.561 2.48043 10.6663 2.73478 10.6663 3C10.6663 3.61884 10.4205 4.21233 9.98292 4.64992C9.54534 5.0875 8.95185 5.33333 8.33301 5.33333H7.66634C7.0475 5.33333 6.45401 5.0875 6.01643 4.64992C5.57884 4.21233 5.33301 3.61884 5.33301 3C5.33301 2.73478 5.43836 2.48043 5.6259 2.29289C5.81344 2.10536 6.06779 2 6.33301 2Z" stroke="#075F14" stroke-width="1.4" stroke-linecap="round" stroke-linejoin="round"/>
<path d="M2.6665 11.333V10.6663C2.6665 9.25185 3.22841 7.8953 4.2286 6.8951C5.22879 5.89491 6.58535 5.33301 7.99984 5.33301C9.41432 5.33301 10.7709 5.89491 11.7711 6.8951C12.7713 7.8953 13.3332 9.25185 13.3332 10.6663V11.333C13.3332 12.0403 13.0522 12.7185 12.5521 13.2186C12.052 13.7187 11.3737 13.9997 10.6665 13.9997H5.33317C4.62593 13.9997 3.94765 13.7187 3.44755 13.2186C2.94746 12.7185 2.6665 12.0403 2.6665 11.333Z" stroke="#075F14" stroke-width="1.4" stroke-linecap="round" stroke-linejoin="round"/>
</svg>
