<svg width="37" height="30" viewBox="0 0 37 30" fill="none" xmlns="http://www.w3.org/2000/svg">
<path d="M13.3404 23.0977L11.0204 17.8977C10.7804 17.3777 10.3404 16.1777 9.62039 16.1777C8.38039 16.1777 8.78039 21.4577 8.78039 22.7777C8.78039 27.0577 11.3404 25.0577 11.3404 27.2177C11.3404 29.4977 7.06039 29.5777 5.50039 29.5777C4.10039 29.5777 0.460391 29.4577 0.460391 27.3777C0.460391 25.0977 2.86039 26.9777 3.18039 23.6977C3.50039 20.3377 3.86039 16.6177 3.86039 10.8177C3.86039 8.4177 3.70039 7.17769 3.26039 6.25769C2.86039 5.41769 0.580391 5.13769 0.580391 3.49769C0.580391 1.21769 4.30039 0.657695 7.50039 0.657695C12.1804 0.657695 12.1004 1.45769 13.3004 3.49769C14.7004 5.85769 17.1804 12.4177 18.9404 12.8177C20.1804 13.0977 21.8204 8.25769 23.2604 5.6177C25.3004 1.85769 25.3404 0.657695 30.6204 0.657695C32.3804 0.657695 36.3804 0.777693 36.3804 3.29769C36.3804 4.8977 34.5804 5.21769 34.1804 6.57769C33.8604 7.69769 33.5804 12.4177 33.5804 14.2177C33.5804 14.8177 33.8204 19.2177 33.9804 22.9377C34.1004 25.8577 36.5004 25.2177 36.5004 27.0177C36.5004 29.6977 31.0204 29.5777 29.2604 29.5777C27.6204 29.5777 22.1404 29.7377 22.1404 27.1777C22.1404 25.7777 23.9404 25.5377 24.2204 24.2577C24.3804 23.5777 25.1804 16.6977 23.7804 16.6977C22.5404 16.6977 21.2604 20.2177 20.3004 22.2577C19.4204 24.0977 17.9804 28.6577 16.7004 28.4977C16.0604 28.4177 15.7404 28.4977 13.3404 23.0977Z" fill="#090C02"/>
</svg>
